<mxfile host="app.diagrams.net" agent="Mozilla/5.0 (Windows NT 10.0; Win64; x64) AppleWebKit/537.36 (KHTML, like Gecko) Chrome/126.0.0.0 Safari/537.36 OPR/112.0.0.0" version="24.7.13">
  <diagram id="kgpKYQtTHZ0yAKxKKP6v" name="Page-1">
    <mxGraphModel dx="993" dy="437" grid="1" gridSize="10" guides="1" tooltips="1" connect="1" arrows="1" fold="1" page="1" pageScale="1" pageWidth="850" pageHeight="1100" background="none" math="0" shadow="0">
      <root>
        <mxCell id="0" />
        <mxCell id="1" parent="0" />
        <mxCell id="5EqQxmMzLvqixHC443I8-2" style="edgeStyle=orthogonalEdgeStyle;rounded=0;orthogonalLoop=1;jettySize=auto;html=1;" edge="1" parent="1" source="5EqQxmMzLvqixHC443I8-1" target="5EqQxmMzLvqixHC443I8-3">
          <mxGeometry relative="1" as="geometry">
            <mxPoint x="430" y="150" as="targetPoint" />
          </mxGeometry>
        </mxCell>
        <mxCell id="5EqQxmMzLvqixHC443I8-1" value="&lt;font style=&quot;font-size: 18px;&quot;&gt;sw_in&lt;/font&gt;" style="ellipse;whiteSpace=wrap;html=1;aspect=fixed;" vertex="1" parent="1">
          <mxGeometry x="260" y="110" width="80" height="80" as="geometry" />
        </mxCell>
        <mxCell id="5EqQxmMzLvqixHC443I8-4" style="edgeStyle=orthogonalEdgeStyle;rounded=0;orthogonalLoop=1;jettySize=auto;html=1;" edge="1" parent="1" source="5EqQxmMzLvqixHC443I8-3">
          <mxGeometry relative="1" as="geometry">
            <mxPoint x="490" y="150" as="targetPoint" />
          </mxGeometry>
        </mxCell>
        <mxCell id="5EqQxmMzLvqixHC443I8-3" value="&lt;font style=&quot;font-size: 16px;&quot;&gt;debounce&lt;/font&gt;" style="ellipse;whiteSpace=wrap;html=1;aspect=fixed;" vertex="1" parent="1">
          <mxGeometry x="385" y="110" width="80" height="80" as="geometry" />
        </mxCell>
        <mxCell id="5EqQxmMzLvqixHC443I8-7" style="edgeStyle=orthogonalEdgeStyle;rounded=0;orthogonalLoop=1;jettySize=auto;html=1;" edge="1" parent="1" source="5EqQxmMzLvqixHC443I8-6" target="5EqQxmMzLvqixHC443I8-9">
          <mxGeometry relative="1" as="geometry">
            <mxPoint x="630" y="150" as="targetPoint" />
          </mxGeometry>
        </mxCell>
        <mxCell id="5EqQxmMzLvqixHC443I8-6" value="&lt;font style=&quot;font-size: 18px;&quot;&gt;main&lt;/font&gt;" style="whiteSpace=wrap;html=1;aspect=fixed;" vertex="1" parent="1">
          <mxGeometry x="490" y="110" width="80" height="80" as="geometry" />
        </mxCell>
        <mxCell id="5EqQxmMzLvqixHC443I8-9" value="&lt;font style=&quot;font-size: 16px;&quot;&gt;led_out&lt;/font&gt;" style="ellipse;whiteSpace=wrap;html=1;" vertex="1" parent="1">
          <mxGeometry x="600" y="110" width="80" height="80" as="geometry" />
        </mxCell>
        <mxCell id="5EqQxmMzLvqixHC443I8-14" style="edgeStyle=orthogonalEdgeStyle;rounded=0;orthogonalLoop=1;jettySize=auto;html=1;entryX=0.5;entryY=1;entryDx=0;entryDy=0;" edge="1" parent="1" source="5EqQxmMzLvqixHC443I8-12" target="5EqQxmMzLvqixHC443I8-6">
          <mxGeometry relative="1" as="geometry" />
        </mxCell>
        <mxCell id="5EqQxmMzLvqixHC443I8-12" value="&lt;font style=&quot;font-size: 17px;&quot;&gt;timer&lt;/font&gt;" style="ellipse;whiteSpace=wrap;html=1;aspect=fixed;" vertex="1" parent="1">
          <mxGeometry x="490" y="230" width="80" height="80" as="geometry" />
        </mxCell>
        <mxCell id="5EqQxmMzLvqixHC443I8-16" value="&lt;font style=&quot;font-size: 24px;&quot;&gt;&amp;nbsp; &amp;nbsp; int main()&lt;/font&gt;" style="rounded=1;whiteSpace=wrap;html=1;align=left;verticalAlign=top;" vertex="1" parent="1">
          <mxGeometry x="240" y="310" width="480" height="240" as="geometry" />
        </mxCell>
        <mxCell id="5EqQxmMzLvqixHC443I8-25" style="edgeStyle=orthogonalEdgeStyle;rounded=0;orthogonalLoop=1;jettySize=auto;html=1;entryX=0.5;entryY=0;entryDx=0;entryDy=0;" edge="1" parent="1" source="5EqQxmMzLvqixHC443I8-18" target="5EqQxmMzLvqixHC443I8-19">
          <mxGeometry relative="1" as="geometry" />
        </mxCell>
        <mxCell id="5EqQxmMzLvqixHC443I8-26" style="edgeStyle=orthogonalEdgeStyle;rounded=0;orthogonalLoop=1;jettySize=auto;html=1;entryX=0.5;entryY=0;entryDx=0;entryDy=0;" edge="1" parent="1" source="5EqQxmMzLvqixHC443I8-18" target="5EqQxmMzLvqixHC443I8-21">
          <mxGeometry relative="1" as="geometry" />
        </mxCell>
        <mxCell id="5EqQxmMzLvqixHC443I8-18" value="Serve" style="ellipse;whiteSpace=wrap;html=1;" vertex="1" parent="1">
          <mxGeometry x="440" y="340" width="80" height="50" as="geometry" />
        </mxCell>
        <mxCell id="5EqQxmMzLvqixHC443I8-27" style="edgeStyle=orthogonalEdgeStyle;rounded=0;orthogonalLoop=1;jettySize=auto;html=1;entryX=0;entryY=0.5;entryDx=0;entryDy=0;" edge="1" parent="1" source="5EqQxmMzLvqixHC443I8-19" target="5EqQxmMzLvqixHC443I8-21">
          <mxGeometry relative="1" as="geometry" />
        </mxCell>
        <mxCell id="5EqQxmMzLvqixHC443I8-34" style="edgeStyle=orthogonalEdgeStyle;rounded=0;orthogonalLoop=1;jettySize=auto;html=1;exitX=0.5;exitY=1;exitDx=0;exitDy=0;entryX=0;entryY=0.5;entryDx=0;entryDy=0;" edge="1" parent="1" source="5EqQxmMzLvqixHC443I8-19" target="5EqQxmMzLvqixHC443I8-20">
          <mxGeometry relative="1" as="geometry" />
        </mxCell>
        <mxCell id="5EqQxmMzLvqixHC443I8-19" value="Left" style="ellipse;whiteSpace=wrap;html=1;" vertex="1" parent="1">
          <mxGeometry x="350" y="390" width="80" height="50" as="geometry" />
        </mxCell>
        <mxCell id="5EqQxmMzLvqixHC443I8-48" style="edgeStyle=orthogonalEdgeStyle;rounded=0;orthogonalLoop=1;jettySize=auto;html=1;exitX=0.5;exitY=1;exitDx=0;exitDy=0;entryX=0.5;entryY=0;entryDx=0;entryDy=0;" edge="1" parent="1" source="5EqQxmMzLvqixHC443I8-20" target="5EqQxmMzLvqixHC443I8-18">
          <mxGeometry relative="1" as="geometry">
            <mxPoint x="650" y="480" as="sourcePoint" />
            <mxPoint x="650" y="330" as="targetPoint" />
            <Array as="points">
              <mxPoint x="480" y="530" />
              <mxPoint x="680" y="530" />
              <mxPoint x="680" y="320" />
              <mxPoint x="480" y="320" />
            </Array>
          </mxGeometry>
        </mxCell>
        <mxCell id="5EqQxmMzLvqixHC443I8-20" value="Blink" style="ellipse;whiteSpace=wrap;html=1;" vertex="1" parent="1">
          <mxGeometry x="440" y="440" width="80" height="50" as="geometry" />
        </mxCell>
        <mxCell id="5EqQxmMzLvqixHC443I8-35" style="edgeStyle=orthogonalEdgeStyle;rounded=0;orthogonalLoop=1;jettySize=auto;html=1;exitX=0.5;exitY=1;exitDx=0;exitDy=0;entryX=1;entryY=0.5;entryDx=0;entryDy=0;" edge="1" parent="1" source="5EqQxmMzLvqixHC443I8-21" target="5EqQxmMzLvqixHC443I8-20">
          <mxGeometry relative="1" as="geometry" />
        </mxCell>
        <mxCell id="5EqQxmMzLvqixHC443I8-42" style="edgeStyle=orthogonalEdgeStyle;rounded=0;orthogonalLoop=1;jettySize=auto;html=1;exitX=0;exitY=0.5;exitDx=0;exitDy=0;entryX=1;entryY=0.5;entryDx=0;entryDy=0;" edge="1" parent="1" source="5EqQxmMzLvqixHC443I8-21" target="5EqQxmMzLvqixHC443I8-19">
          <mxGeometry relative="1" as="geometry" />
        </mxCell>
        <mxCell id="5EqQxmMzLvqixHC443I8-21" value="Right" style="ellipse;whiteSpace=wrap;html=1;" vertex="1" parent="1">
          <mxGeometry x="530" y="390" width="80" height="50" as="geometry" />
        </mxCell>
        <mxCell id="5EqQxmMzLvqixHC443I8-36" value="successful return" style="text;html=1;align=center;verticalAlign=middle;whiteSpace=wrap;rounded=0;" vertex="1" parent="1">
          <mxGeometry x="424" y="390" width="110" height="30" as="geometry" />
        </mxCell>
        <mxCell id="5EqQxmMzLvqixHC443I8-39" value="Player = L&lt;div&gt;LeftBtn = 1&lt;/div&gt;" style="text;html=1;align=center;verticalAlign=middle;whiteSpace=wrap;rounded=0;" vertex="1" parent="1">
          <mxGeometry x="370" y="330" width="70" height="30" as="geometry" />
        </mxCell>
        <mxCell id="5EqQxmMzLvqixHC443I8-44" value="pong miss or early press" style="text;html=1;align=center;verticalAlign=middle;whiteSpace=wrap;rounded=0;" vertex="1" parent="1">
          <mxGeometry x="325" y="460" width="60" height="30" as="geometry" />
        </mxCell>
        <mxCell id="5EqQxmMzLvqixHC443I8-45" value="pong miss or early press" style="text;html=1;align=center;verticalAlign=middle;whiteSpace=wrap;rounded=0;" vertex="1" parent="1">
          <mxGeometry x="580" y="460" width="60" height="30" as="geometry" />
        </mxCell>
        <mxCell id="5EqQxmMzLvqixHC443I8-46" value="Player = R&lt;div&gt;RightBtn = 1&lt;/div&gt;" style="text;html=1;align=center;verticalAlign=middle;whiteSpace=wrap;rounded=0;" vertex="1" parent="1">
          <mxGeometry x="520" y="330" width="70" height="30" as="geometry" />
        </mxCell>
      </root>
    </mxGraphModel>
  </diagram>
</mxfile>
